<svg xmlns="http://www.w3.org/2000/svg" version="1.1" xmlns:xlink="http://www.w3.org/1999/xlink" xmlns:svgjs="http://svgjs.dev/svgjs" width="2000" height="462" viewBox="0 0 2000 462"><g transform="matrix(1,0,0,1,-0.6565695820537485,0.9155629089943886)"><svg viewBox="0 0 251 58" data-background-color="#090909" preserveAspectRatio="xMidYMid meet" height="462" width="2000" xmlns="http://www.w3.org/2000/svg" xmlns:xlink="http://www.w3.org/1999/xlink"><g id="tight-bounds" transform="matrix(1,0,0,1,0.08239948254774276,0.43282757201740196)"><svg viewBox="0 0 250.83520103490451 57.68169999999999" height="57.68169999999999" width="250.83520103490451"><g><svg viewBox="0 0 250.83520103490451 57.68169999999999" height="57.68169999999999" width="250.83520103490451"><g><svg viewBox="0 0 250.83520103490451 57.68169999999999" height="57.68169999999999" width="250.83520103490451"><g id="textblocktransform"><svg viewBox="0 0 250.83520103490451 57.68169999999999" height="57.68169999999999" width="250.83520103490451" id="textblock"><g><svg viewBox="0 0 250.83520103490451 57.68169999999999" height="57.68169999999999" width="250.83520103490451"><g><svg><g></g><g></g></svg></g><g><svg><g><svg></svg></g><g></g></svg></g><g id="text-0"><svg viewBox="0 0 250.83520103490451 57.68169999999999" height="57.68169999999999" width="250.83520103490451"><g transform="matrix(1,0,0,1,0,0)"><svg width="178.1418" viewBox="3.9 -35 110.74 35.65" height="57.68169999999999" data-palette-color="#cfc9c9"><g class="wordmark-text-0" data-fill-palette-color="primary"><path d="M3.9-24.35L7.2-24.35 7.75-19.7 8.15-18.95 8.15 0 3.9 0 3.9-24.35ZM18.05-24.95L19.15-24.95 18.65-20.95 17.25-20.95Q15.1-20.95 12.95-20.08 10.8-19.2 7.7-17.6L7.7-17.6 7.35-20.25Q10.05-22.45 12.78-23.7 15.5-24.95 18.05-24.95L18.05-24.95ZM34.25-24.95L34.25-24.95Q38.45-24.95 40.97-23.7 43.5-22.45 44.6-19.63 45.7-16.8 45.7-12.15L45.7-12.15Q45.7-7.5 44.6-4.67 43.5-1.85 40.97-0.6 38.45 0.65 34.25 0.65L34.25 0.65Q30.1 0.65 27.57-0.6 25.05-1.85 23.92-4.67 22.8-7.5 22.8-12.15L22.8-12.15Q22.8-16.8 23.92-19.63 25.05-22.45 27.57-23.7 30.1-24.95 34.25-24.95ZM34.25-21.35L34.25-21.35Q31.6-21.35 30.07-20.53 28.55-19.7 27.9-17.7 27.25-15.7 27.25-12.15L27.25-12.15Q27.25-8.6 27.9-6.6 28.55-4.6 30.07-3.78 31.6-2.95 34.25-2.95L34.25-2.95Q36.9-2.95 38.45-3.78 40-4.6 40.65-6.6 41.3-8.6 41.3-12.15L41.3-12.15Q41.3-15.7 40.65-17.7 40-19.7 38.45-20.53 36.9-21.35 34.25-21.35ZM65.45-24.95L65.45-24.95Q69.95-24.95 72.1-22.03 74.25-19.1 74.25-12.25L74.25-12.25Q74.25-9.1 73.72-6.7 73.2-4.3 71.97-2.68 70.75-1.05 68.67-0.23 66.6 0.6 63.45 0.6L63.45 0.6Q62.2 0.6 60.75 0.5 59.3 0.4 57.8 0.18 56.3-0.05 54.87-0.38 53.45-0.7 52.25-1.15L52.25-1.15 55.65-4.05Q57-3.65 58.32-3.4 59.65-3.15 60.92-3.08 62.2-3 63.35-3L63.35-3Q65.7-3.05 67.12-3.9 68.55-4.75 69.2-6.78 69.85-8.8 69.85-12.25L69.85-12.25Q69.85-15.6 69.35-17.57 68.85-19.55 67.57-20.4 66.3-21.25 63.95-21.25L63.95-21.25Q61.95-21.25 60.15-20.18 58.35-19.1 56-17.25L56-17.25 55.7-20.1Q57.2-21.7 58.77-22.78 60.35-23.85 62.05-24.4 63.75-24.95 65.45-24.95ZM52.25-35L56.5-35 56.5-25.9Q56.5-24.35 56.42-23.05 56.35-21.75 56.05-20.4L56.05-20.4 56.45-19.7 56.5-0.95 52.25-1.15 52.25-35ZM81.04-24.35L85.24-24.35 85.24 0 81.04 0 81.04-24.35ZM82.14-34.7L84.14-34.7Q85.44-34.7 85.44-33.4L85.44-33.4 85.44-30.55Q85.44-29.25 84.14-29.25L84.14-29.25 82.14-29.25Q80.84-29.25 80.84-30.55L80.84-30.55 80.84-33.4Q80.84-34.7 82.14-34.7L82.14-34.7ZM108.04-24.95L108.04-24.95Q114.64-24.95 114.64-18.25L114.64-18.25 114.64 0 110.39 0 110.39-17.05Q110.39-19.5 109.59-20.43 108.79-21.35 106.89-21.35L106.89-21.35Q104.64-21.35 102.39-20.25 100.14-19.15 97.04-17.25L97.04-17.25 96.84-20.3Q99.69-22.5 102.49-23.73 105.29-24.95 108.04-24.95ZM93.24-24.35L96.84-24.35 97.19-19.7 97.49-18.95 97.49 0 93.24 0 93.24-24.35Z" fill="#000000" data-fill-palette-color="primary"></path></g></svg></g><g><svg xmlns="http://www.w3.org/2000/svg" xml:space="preserve" viewBox="11.017823632605118 11.461749422187646 37.963698158539415 37.068250577812364" x="191.7601" y="0" height="57.68169999999999" width="59.075101034904506" class="icon-dxe-0" data-fill-palette-color="accent" id="dxe-0"><path d="M48.85 34.1L35.82 11.92a0.945 0.945 0 0 0-1.62 0L30 19.08l-4.21-7.15a0.945 0.945 0 0 0-1.62 0L11.15 34.1c-0.22 0.37-0.16 0.83 0.14 1.13l13.03 13.03c0.18 0.18 0.42 0.27 0.66 0.27s0.48-0.09 0.66-0.27L30 43.91l4.35 4.35c0.18 0.18 0.42 0.27 0.66 0.27s0.48-0.09 0.66-0.27L48.7 35.23c0.31-0.3 0.37-0.77 0.15-1.13M24.99 46.28L13.13 34.42l11.86-20.18 3.93 6.68-7.75 13.18c-0.22 0.37-0.16 0.83 0.14 1.13l7.36 7.36zM30 22.77l6.85 11.65L30 41.27l-6.85-6.85z m5.01 23.51l-3.69-3.69 7.36-7.36c0.3-0.3 0.36-0.77 0.14-1.13l-7.74-13.17 3.93-6.68 11.86 20.18z" fill="#000000" data-fill-palette-color="accent"></path></svg></g></svg></g></svg></g></svg></g></svg></g><g></g></svg></g><defs></defs></svg><rect width="250.83520103490451" height="57.68169999999999" fill="none" stroke="none" visibility="hidden"></rect></g></svg></g></svg>