<svg xmlns="http://www.w3.org/2000/svg" version="1.1" xmlns:xlink="http://www.w3.org/1999/xlink" xmlns:svgjs="http://svgjs.dev/svgjs" width="2000" height="1500" viewBox="0 0 2000 1500"><rect width="2000" height="1500" fill="#ffffff"></rect><g transform="matrix(0.75,0,0,0.75,250.0742689691774,213.80951417004053)"><svg viewBox="0 0 345 247" data-background-color="#ffffff" preserveAspectRatio="xMidYMid meet" height="1431" width="2000" xmlns="http://www.w3.org/2000/svg" xmlns:xlink="http://www.w3.org/1999/xlink"><g id="tight-bounds" transform="matrix(1,0,0,1,-0.017081862910799828,-0.09999999999999432)"><svg viewBox="0 0 345.0341637258216 247.2" height="247.2" width="345.0341637258216"><g><svg viewBox="0 0 345.0341637258216 247.2" height="247.2" width="345.0341637258216"><g transform="matrix(1,0,0,1,167.8548210028169,0)"><svg viewBox="0 0 177.17934272300468 247.2" height="247.2" width="177.17934272300468"><g id="textblocktransform"><svg viewBox="0 0 177.17934272300468 247.2" height="247.2" width="177.17934272300468" id="textblock"><g><svg viewBox="0 0 177.17934272300468 247.2" height="247.2" width="177.17934272300468"><g transform="matrix(1,0,0,1,0,0)"><svg width="177.17934272300468" viewBox="3.78 -31.95 22.9 31.95" height="247.2" data-palette-color="#3d3839"><g class="wordmark-text-0" data-fill-palette-color="primary" id="text-0"><path d="M26.68 0L22.4 0 21.5-6.55Q21.25-8.4 20.65-9.76 20.05-11.13 18.81-11.9 17.57-12.68 15.3-12.68L15.3-12.68 6.63-12.7 6.63-15.98 15.9-16Q19.18-16 20.58-17.61 21.98-19.23 21.98-22L21.98-22 21.98-22.75Q21.98-25.5 20.55-27.01 19.13-28.53 15.8-28.53L15.8-28.53 6.5-28.53 6.5-31.95 16.35-31.95Q21.5-31.95 23.84-29.69 26.18-27.43 26.18-23.45L26.18-23.45 26.18-22.6Q26.18-19.48 24.7-17.49 23.23-15.5 19.8-15.08L19.8-15.08 19.8-14.58 18.03-15.2Q20.8-15 22.31-13.99 23.83-12.98 24.53-11.23 25.23-9.47 25.6-7.03L25.6-7.03 26.68 0ZM7.88 0L3.78 0 3.78-31.95 7.85-31.95 7.85-14.88 7.88-13.3 7.88 0Z" fill="#3d3839" data-fill-palette-color="primary"></path></g></svg></g></svg></g></svg></g></svg></g><g transform="matrix(1,0,0,1,0,82.0985929039125)"><svg viewBox="0 0 109.4968338028169 83.00281419217497" height="83.00281419217497" width="109.4968338028169"><g><svg xmlns="http://www.w3.org/2000/svg" xmlns:xlink="http://www.w3.org/1999/xlink" version="1.1" x="0" y="0" viewBox="6.1194795808875435 16.83392143373021 88.69085112115364 67.23107856626979" enable-background="new 0 0 100 100" xml:space="preserve" height="83.00281419217497" width="109.4968338028169" class="icon-icon-0" data-fill-palette-color="accent" id="icon-0"><g fill="#ffc604" data-fill-palette-color="accent"><g fill="#ffc604" data-fill-palette-color="accent"><path d="M42.66 68.106c-0.324 0-0.655-0.008-0.984-0.025-7.143-0.355-16.006-4.694-17.481-15.758-1.338-10.041-0.055-13.678 0.096-14.059 0.244-0.617 0.881-0.987 1.537-0.891 0.517 0.076 12.705 1.894 18.191 6.632 8.778 7.582 9.074 18.716 9.083 19.188 0.005 0.319-0.097 0.632-0.29 0.887C52.687 64.246 49.682 68.106 42.66 68.106zM26.712 40.427c-0.257 1.633-0.523 5.195 0.32 11.518 1.242 9.31 8.452 12.964 14.786 13.277 0.283 0.015 0.566 0.022 0.843 0.022 4.404 0 6.734-1.771 7.545-2.549-0.181-2.217-1.305-10.691-8.058-16.524C38.255 42.81 29.922 41.015 26.712 40.427z" fill="#ffc604" data-fill-palette-color="accent"></path></g><path d="M41.746 68.083c-9.838 0-17.842-8.005-17.842-17.843 0-9.037 0-25.858 10.592-25.858 4.61 0 10.689 3.459 16.261 9.253 4.271 4.441 8.832 11.134 8.832 16.605C59.589 60.078 51.586 68.083 41.746 68.083zM34.496 27.245c-7.729 0-7.729 14.959-7.729 22.996 0 8.26 6.72 14.979 14.979 14.979 8.26 0 14.979-6.72 14.979-14.979C56.726 41.858 42.598 27.245 34.496 27.245z" fill="#ffc604" data-fill-palette-color="accent"></path><path d="M32.5 84.065c-0.825 0-1.5-0.67-1.5-1.494V64.31c0-0.826 0.675-1.496 1.5-1.496 0.826 0 1.5 0.67 1.5 1.496v18.262C34 83.396 33.326 84.065 32.5 84.065z" fill="#ffc604" data-fill-palette-color="accent"></path><path d="M49.5 84.065c-0.825 0-1.5-0.67-1.5-1.494V65.31c0-0.826 0.675-1.496 1.5-1.496s1.5 0.67 1.5 1.496v17.262C51 83.396 50.325 84.065 49.5 84.065z" fill="#ffc604" data-fill-palette-color="accent"></path><path d="M25.623 40.221c-0.103 0-0.208-0.011-0.312-0.034l-10.305-2.29c-0.635-0.142-1.095-0.692-1.12-1.343-0.024-0.65 0.393-1.235 1.015-1.424l10.687-3.244c0.757-0.229 1.556 0.197 1.786 0.954 0.229 0.756-0.198 1.556-0.954 1.786l-5.469 1.66 4.982 1.107c0.771 0.171 1.258 0.936 1.087 1.708C26.87 39.768 26.278 40.221 25.623 40.221z" fill="#ffc604" data-fill-palette-color="accent"></path><circle cx="35.64" cy="34.21" r="1.9" fill="#ffc604" data-fill-palette-color="accent"></circle><path d="M91.841 67H51.845c-0.825 0-1.495-0.174-1.495-1s0.67-1 1.495-1h39.238c0.534-1 1.375-3.678-0.103-6.633-1.487-2.975-2.653-4.712-3.234-5.292l-31.667 7.762c-0.8 0.2-1.611-0.37-1.812-1.171-0.201-0.801 0.285-1.654 1.087-1.855l32.401-8.136c0.368-0.092 0.759-0.052 1.09 0.133 0.355 0.198 2.251 1.437 4.808 6.552 2.913 5.824-0.573 9.828-0.724 9.988C92.647 66.647 92.253 67 91.841 67z" fill="#ffc604" data-fill-palette-color="accent"></path><path d="M16.314 51.572c-0.239 0-0.482-0.059-0.706-0.187-0.687-0.391-0.927-1.264-0.537-1.952 0.078-0.138 5.979-10.704 2.637-16.995-3.444-6.484-7.962-7.921-8.007-7.936-0.756-0.23-1.183-1.029-0.952-1.786 0.23-0.756 1.03-1.183 1.786-0.953 0.231 0.07 5.706 1.809 9.701 9.331 4.085 7.69-2.398 19.264-2.676 19.752C17.296 51.312 16.812 51.572 16.314 51.572z" fill="#ffc604" data-fill-palette-color="accent"></path><path d="M12.772 25.451c-0.741 0-1.368-0.57-1.425-1.321l-0.443-5.755c-0.061-0.788 0.53-1.476 1.317-1.537 0.786-0.059 1.477 0.529 1.537 1.317l0.443 5.755c0.061 0.788-0.53 1.476-1.317 1.537C12.846 25.45 12.809 25.451 12.772 25.451z" fill="#ffc604" data-fill-palette-color="accent"></path><path d="M17.089 28.772c-0.741 0-1.368-0.57-1.426-1.321l-0.443-5.756c-0.061-0.788 0.529-1.477 1.317-1.537 0.786-0.06 1.476 0.529 1.537 1.317l0.443 5.756c0.061 0.789-0.529 1.477-1.318 1.537C17.163 28.771 17.125 28.772 17.089 28.772z" fill="#ffc604" data-fill-palette-color="accent"></path><path d="M7.549 26.856c-0.746 0-1.375-0.578-1.426-1.333-0.055-0.789 0.541-1.472 1.329-1.526l5.759-0.399c0.788-0.056 1.472 0.54 1.526 1.329s-0.54 1.473-1.329 1.527L7.65 26.853C7.616 26.854 7.583 26.856 7.549 26.856z" fill="#ffc604" data-fill-palette-color="accent"></path><path d="M11.462 30.644c-0.746 0-1.375-0.578-1.427-1.333-0.054-0.789 0.541-1.472 1.329-1.527l5.759-0.398c0.788-0.057 1.472 0.54 1.527 1.329 0.055 0.789-0.54 1.472-1.329 1.527l-5.758 0.398C11.529 30.643 11.495 30.644 11.462 30.644z" fill="#ffc604" data-fill-palette-color="accent"></path></g></svg></g></svg></g></svg></g><defs></defs></svg><rect width="345.0341637258216" height="247.2" fill="none" stroke="none" visibility="hidden"></rect></g></svg></g></svg>